<?xml version="1.0" standalone="no"?>
<!DOCTYPE svg PUBLIC "-//W3C//DTD SVG 1.1//EN" "http://www.w3.org/Graphics/SVG/1.1/DTD/svg11.dtd" >
<!--
2013-9-30: Created.
-->
<svg>
<metadata>
Created by iconfont
</metadata>
<defs>

<font id="iconfont" horiz-adv-x="1024" >
  <font-face
    font-family="iconfont"
    font-weight="500"
    font-stretch="normal"
    units-per-em="1024"
    ascent="896"
    descent="-128"
  />
    <missing-glyph />
    
    <glyph glyph-name="x" unicode="x" horiz-adv-x="1001"
d="M281 543q-27 -1 -53 -1h-83q-18 0 -36.5 -6t-32.5 -18.5t-23 -32t-9 -45.5v-76h912v41q0 16 -0.5 30t-0.5 18q0 13 -5 29t-17 29.5t-31.5 22.5t-49.5 9h-133v-97h-438v97zM955 310v-52q0 -23 0.5 -52t0.5 -58t-10.5 -47.5t-26 -30t-33 -16t-31.5 -4.5q-14 -1 -29.5 -0.5
t-29.5 0.5h-32l-45 128h-439l-44 -128h-29h-34q-20 0 -45 1q-25 0 -41 9.5t-25.5 23t-13.5 29.5t-4 30v167h911zM163 247q-12 0 -21 -8.5t-9 -21.5t9 -21.5t21 -8.5q13 0 22 8.5t9 21.5t-9 21.5t-22 8.5zM316 123q-8 -26 -14 -48q-5 -19 -10.5 -37t-7.5 -25t-3 -15t1 -14.5
t9.5 -10.5t21.5 -4h37h67h81h80h64h36q23 0 34 12t2 38q-5 13 -9.5 30.5t-9.5 34.5q-5 19 -11 39h-368zM336 498v228q0 11 2.5 23t10 21.5t20.5 15.5t34 6h188q31 0 51.5 -14.5t20.5 -52.5v-227h-327z" />
    

    
    <glyph glyph-name="thumbsup" unicode="&#59035;" d="M968.476376 238.179091c22.680466 26.161892 35.582221 69.372531 35.582221 110.535273 0 27.185841-5.887706 50.99265-17.048748 68.860557-14.540073 23.243638-37.783711 36.042998-65.430328 36.042998l-134.034898 0c72.956352 132.652567 91.387431 232.589971 54.781261 297.303535-25.547523 45.104945-72.341983 61.078546-104.698765 61.078546-12.79936 0-23.653217-9.471526-25.342733-22.168492-9.164342-67.529424-60.822559-148.114194-141.714514-221.070546-77.512924-69.884506-172.740163-125.740913-270.629669-159.224039-12.338583 26.0083-38.80766 44.029799-69.423729 44.029799l-153.59232 0c-42.340283 0-76.79616-34.455877-76.79616-76.79616l0-460.776961c0-42.340283 34.455877-76.79616 76.79616-76.79616l153.59232 0c32.459177 0 60.20819 20.222989 71.471626 48.739963 100.39818-12.59457 138.181891-32.766362 174.788061-52.323784 45.821709-24.472376 89.032348-47.613619 230.542073-47.613619 36.862157 0 71.574021 9.625119 97.787111 27.083446 25.59872 17.048748 41.981901 41.00915 47.40883 68.758162 20.427779 8.293985 38.551672 27.441828 52.426179 55.907605 13.516124 27.697815 22.270886 63.075246 22.270886 90.158692 0 5.068547-0.307185 9.727514-0.870356 14.028099 12.952952 9.522724 24.574771 24.216389 34.148693 43.569022 13.823309 27.902605 22.117294 62.870456 22.117294 93.486526 0 21.707715-4.044598 39.780411-11.980201 53.80851-0.665567 1.126344-1.331133 2.252687-1.9967 3.327834zM230.414079-109.553922l-153.59232 0c-14.130493 0-25.59872 11.468227-25.59872 25.59872l0 460.776961c0 14.130493 11.468227 25.59872 25.59872 25.59872l153.59232 0c14.130493 0 25.59872-11.468227 25.59872-25.59872l0-460.725764c0 0 0-0.051197 0-0.051197 0-14.130493-11.468227-25.59872-25.59872-25.59872zM938.935453 285.9975c-7.730813-15.564022-15.564022-21.19574-18.943053-21.19574-14.130493 0-25.59872-11.468227-25.59872-25.59872s11.468227-25.59872 25.59872-25.59872c2.150292 0 3.686216 0 5.9901-3.9934 3.379031-5.9901 5.324534-16.383181 5.324534-28.568172 0-22.782861-6.450877-49.866307-16.79276-70.754862-10.137093-20.427779-20.427779-27.851407-24.933153-27.851407-14.130493 0-25.59872-11.468227-25.59872-25.59872 0-9.061947 4.710164-17.048748 11.826609-21.60532 1.587121-16.229589-5.9901-59.645018-25.649918-87.957202-7.423629-10.700265-15.256837-16.843958-21.40053-16.843958-14.130493 0-25.59872-11.468227-25.59872-25.59872 0-45.053747-49.763912-65.583921-95.9952-65.583921-128.659167 0-164.702165 19.250237-206.428079 41.572321-39.012449 20.837358-82.837458 44.285786-193.577521 58.057897l0 419.153442c107.565822 35.275036 212.571771 96.097595 297.559522 172.688966 81.557522 73.519524 135.110044 152.977951 153.285136 226.59987 13.925704-4.454177 29.643318-13.874506 39.729214-31.640018 17.099945-30.20649 29.899305-107.309835-76.437778-284.504175-4.761362-7.884406-4.863757-17.765512-0.307185-25.80351s13.055347-13.00415 22.270886-13.00415l178.320684 0c10.188291 0 16.741563-3.583821 22.014899-11.980201 5.9901-9.573921 9.266737-24.421179 9.266737-41.725914 0-21.707715-5.222139-45.156142-13.925704-62.716864z"  horiz-adv-x="1024" />

    
    <glyph glyph-name="jiahao1" unicode="&#58930;" d="M105.78479 337.45403c-24.181749 0-43.830251-16.506952-43.830251-36.867676 0-20.509103 19.62292-36.874839 43.830251-36.874839l810.079886 0c24.177656 0 43.830251 16.506952 43.830251 36.874839 0 20.502963-19.62292 36.867676-43.830251 36.867676L105.78479 337.45403 105.78479 337.45403zM473.953987-104.455635c0-24.176632 16.507976-43.830251 36.867676-43.830251 20.50808 0 36.872792 19.62292 36.872792 43.830251L547.694455 705.624251c0 24.180725-16.506952 43.829228-36.872792 43.829228-20.50501 0-36.867676-19.62292-36.867676-43.829228L473.953987-104.455635 473.953987-104.455635 473.953987-104.455635zM473.953987-104.455635"  horiz-adv-x="1024" />

    
    <glyph glyph-name="icon" unicode="&#58909;" d="M562.454624 89.718627c-8.650007 0-16.767895 3.353374-22.858614 9.444093l-288.592814 288.573371c-9.305947 9.325389-17.181311 26.201755-18.329461 39.266305l-13.900591 156.468634c-1.25662 13.896498 5.26491 31.879058 15.170514 41.806151l35.633568 35.631522c8.998955 9.019421 24.710798 15.326057 38.195927 15.326057 1.24741 0 2.481518-0.055259 3.670599-0.162706l156.087964-14.21884c13.068643-1.187035 29.930683-9.086959 39.220257-18.376533l288.584628-288.572348c12.600993-12.603039 12.603039-33.115212 0.005117-45.726437L585.325517 99.161696C579.216379 93.068931 571.098491 89.718627 562.454624 89.718627zM307.77213 647.061324c-5.65172 0-14.020318-3.226484-17.555841-6.770194l-35.633568-35.632545c-3.824095-3.833305-7.237845-13.217023-6.752798-18.584264l13.903661-156.50445c0.559748-6.369058 5.374404-16.671705 9.908674-21.215184l288.581558-288.563138c0.743944-0.743944 1.623987-0.900509 2.230808-0.900509 0.611937 0 1.499144 0.157589 2.254344 0.912789l209.997782 209.999828c1.210571 1.209548 1.211595 3.260254 0 4.471848L486.123145 622.84683c-4.536316 4.536316-14.857383 9.373485-21.23565 9.952676l-156.090011 14.21884C308.485375 647.046998 308.140521 647.061324 307.77213 647.061324zM326.780043 513.952724c-14.176884 0-27.507494 5.528923-37.536918 15.566534-10.030447 10.015098-15.563464 23.348778-15.566534 37.531801-0.004093 14.176884 5.519714 27.505447 15.551184 37.532825 10.015098 10.015098 23.337521 15.531741 37.511335 15.531741 14.185071 0 27.523867-5.523807 37.559431-15.555278 10.028401-10.028401 15.548114-23.359011 15.546068-37.537941-0.002047-14.176884-5.52483-27.499307-15.548114-37.513382C354.282421 519.481647 340.954881 513.952724 326.780043 513.952724zM326.738088 590.941166c-6.380314 0-12.376888-2.482541-16.884552-6.990205-4.519943-4.51585-7.006578-10.515494-7.004531-16.891715 0.001023-6.385431 2.494821-12.389168 7.018857-16.907065 4.5312-4.535293 10.531867-7.02602 16.911158-7.02602 6.374174 0 12.370749 2.489704 16.884552 7.010671 4.520967 4.51585 7.004531 10.510378 7.006578 16.891715 0.001023 6.384407-2.484587 12.386098-6.998391 16.900925C339.148745 588.450439 333.133751 590.941166 326.738088 590.941166zM633.285832 356.58051l-0.231267 0.343831c-12.060687 16.646122-23.879873 29.798676-35.136242 39.098483-0.816598 0.938372-1.651616 1.799996-2.50403 2.586918 11.602246 2.080382 23.239284 4.841262 34.860972 8.277524l1.471514 0.435928 1.067308 1.102101c3.393283 3.50687 4.731768 7.120165 3.976568 10.741645-0.781806 3.746324-3.682879 6.67605-8.623401 8.707312l-1.938142 0.797156-2.001587-0.617054c-20.196994-6.231935-40.136116-9.851369-59.413158-10.793834l28.594245 29.54285 0.242524 1.930979c0.562818 4.477988-0.296759 8.048303-2.554172 10.607592-1.428535 1.61887-4.092201 3.548826-8.67559 3.548826-0.977257 0-2.030239-0.089028-3.127224-0.264013l-1.921769-0.305969-74.859965-77.344552c-2.000564 5.424546-4.40431 10.979052-7.187703 16.615423l53.991682 55.783491 0.243547 1.932002c0.562818 4.479011-0.296759 8.048303-2.554172 10.608615-1.428535 1.61887-4.093225 3.547803-8.676613 3.547803-0.977257 0-2.028193-0.088004-3.124154-0.26299l-1.922792-0.304945-26.761504-27.64871c0.871857 10.856255 0.463558 22.983457-1.216711 36.137035l-0.25992 2.029216-1.471514 1.422396c-3.01466 2.919493-6.200212 4.400217-9.465582 4.400217-2.89391 0-7.110955-1.193175-10.766205-6.872524l-1.174756-1.824555 0.302899-2.149966c1.804089-12.785188 2.006703-24.927739 0.603751-36.090986l-0.172939-1.364067 0.456395-1.298576c2.27174-6.462179 5.587252-8.851599 8.489348-9.552563l-9.403161-9.717316c-6.951319 9.009188-16.512069 19.417235-28.514427 31.03483l-2.098801 2.030239-2.883677-0.463558c-5.031597-0.807389-8.622378-2.741437-10.671037-5.748934-1.194198-1.752924-2.425236-4.722558-1.508353-8.909927l0.376577-1.720178 1.264806-1.223874c10.987239-10.635221 20.500916-21.113877 28.340465-31.212886l-7.078209-7.312546c-1.319042 2.603291-3.903913 4.841262-7.728008 6.680143l-1.246387 0.600681-1.38351-0.024559c-13.654998-0.233314-25.778106-1.301645-36.034704-3.176342l-1.841951-0.336668-1.301645-1.344624c-3.305279-3.415796-4.76349-7.013741-4.334725-10.692526 0.432859-3.713578 2.727111-6.925736 6.819313-9.54847l1.86958-1.198292 2.194992 0.347924c9.130961 1.452071 18.390859 2.39249 27.609825 2.804882l-21.403472-22.11467 0.039909-2.416026c0.132006-8.108678 5.206582-13.146415 13.243629-13.146415l2.750647 0.042979 40.049135 41.379433c2.26253-5.653767 4.244674-11.649318 5.92392-17.921161l-47.202045-48.76975-0.24457-1.925862c-0.571005-4.486174 0.284479-8.058536 2.541893-10.620895 1.426489-1.61887 4.087085-3.549849 8.66638-3.548826 0.986467 0 2.047636 0.090051 3.154853 0.268106l1.916653 0.308015 34.902928 36.06131c-0.563842-19.367093-5.579065-41.393759-14.97404-65.688071l-0.532119-1.376347 0.186242-1.464351c1.409093-11.088546 7.854898-12.285814 10.56052-12.284791 2.772136 0.001023 5.656837 1.136893 8.816806 3.476171l1.38965 1.030469 0.605797 1.62194c6.163373 16.537651 10.883885 32.981159 14.072507 49.004087 0.225127-0.016373 0.445138-0.021489 0.657986-0.021489 1.155313 0 2.322905 0.205685 3.472078 0.613984l1.291412 0.456395 19.446911 20.093641c16.610306-26.303063 14.132882-55.184857-7.494695-88.060615l-0.795109-1.210571-0.137123-1.440815c-0.483001-5.051039 0.384763-8.717546 2.650363-11.209296 1.722224-1.89414 4.161786-2.936889 6.872524-2.936889 2.332115 0 4.90266 0.747014 7.860015 2.284019l1.288343 0.669242 0.824785 1.194198c28.972868 42.013883 30.563086 81.372286 4.76042 117.064182l27.377534 28.285207c2.198062 2.27174 3.446495 2.447748 3.777023 2.447748 0.910743 0 2.312672-1.106194 3.750417-2.956332l0.552585-0.711198 0.73985-0.511653c3.704368-2.559289 11.580756-10.207479 28.027333-32.06223 3.53757-4.798283 2.644223-7.584746 1.303692-9.677407l-0.057305-0.092098c-4.953825-8.054443-13.157671-13.520945-25.083282-16.705474l-2.073218-0.555655-1.220804-1.76725c-3.241834-4.691859-4.142343-8.992815-2.677992-12.781094 1.433652-3.713578 4.834098-6.217608 10.102079-7.445576l1.838881-0.428765 1.739621 0.729617c17.740036 7.430226 30.763654 18.166755 38.706557 31.909757l0.210801 0.400113C640.600425 337.065038 639.530047 346.532667 633.285832 356.58051zM542.192138 393.883091c6.252401-0.022513 12.55392 0.164752 18.872836 0.559748l-50.334385-52.003398c-0.044002 5.861498-0.296759 11.926634-0.757247 18.155499L542.192138 393.883091z"  horiz-adv-x="1024" />

    
    <glyph glyph-name="shoucang" unicode="&#58895;" d="M327.728136 91.698724l150.60509 60.966537 33.721009 13.627369 33.721009-13.627369 150.609183-60.914348-4.484128 166.562527-0.907673 32.985252 20.663622 25.711592 96.563266 120.353089L652.842749 484.425224l-30.030967 9.081843-17.825994 25.716708-92.931552 134.033669-92.871177-134.033669-17.825994-25.716708-30.033014-9.081843-155.490354-47.120181 96.566336-120.29476 20.663622-25.711592-0.907673-32.985252L327.728136 91.698724M789.940197-43.129031 512.054235 69.272969 234.17339-43.129031l8.115841 303.886125L62.389956 484.824313l282.879696 85.667102L512.054235 811.130054l166.843936-240.638639 282.711873-85.667102L781.766027 260.756071 789.940197-43.129031 789.940197-43.129031 789.940197-43.129031z"  horiz-adv-x="1024" />

    
    <glyph glyph-name="pinglun" unicode="&#59032;" d="M679.542-128c-5.495 0-10.99 0-14.653 1.578-16.485 4.733-29.306 18.934-31.138 33.134l-16.485 153.048h-131.879c-267.421 0-485.387 187.76-485.387 418.12 0 230.361 217.966 418.12 485.387 418.12h119.057c265.589 0 483.556-187.76 483.556-418.12 0-63.112-10.99-124.647-31.138-184.604-32.97-96.247-97.077-187.76-188.66-269.806l-157.522-140.425c-7.327-6.311-20.148-11.045-31.138-11.045v0zM483.771 810.667c-218.677 0-398.438-150.239-398.438-336.474 0-186.234 177.907-336.474 398.438-336.474h176.054c24.092 0 44.477-15.65 46.33-35.995l11.119-101.725 88.954 76.685c83.394 73.555 140.843 151.804 168.641 234.749 18.532 51.645 27.798 106.42 27.798 161.194 0 184.669-177.907 336.474-398.438 336.474h-120.458v1.565z"  horiz-adv-x="1093" />

    
    <glyph glyph-name="mudedi" unicode="&#58920;" d="M512-97.92c-6.88 0-13.76 2.496-19.2 7.456-15.392 14.08-377.184 347.616-377.184 560.576 0 218.24 177.824 395.776 396.352 395.776 218.56 0 396.384-177.536 396.384-395.776 0-212.96-361.792-546.496-377.184-560.576C525.728-95.424 518.88-97.92 512-97.92zM512 809.056c-187.2 0-339.52-152.032-339.52-338.944 0-146.848 229.344-395.744 339.52-500.704 110.176 104.96 339.488 353.856 339.488 500.704C851.488 657.024 699.2 809.056 512 809.056zM512 328.096c-91.456 0-165.888 74.336-165.888 165.696 0 91.36 74.432 165.696 165.888 165.696 91.488 0 165.952-74.336 165.952-165.696C677.92 402.432 603.488 328.096 512 328.096zM512 602.656c-60.128 0-109.056-48.832-109.056-108.864 0-60 48.928-108.832 109.056-108.832 60.16 0 109.056 48.832 109.056 108.832C621.056 553.824 572.16 602.656 512 602.656z"  horiz-adv-x="1024" />

    
    <glyph glyph-name="wode" unicode="&#58931;" d="M182.6 545.8c0 45.8 37.2 83 83.2 83 46 0 83.2-37.2 83.2-83 0-45.8-37.2-83-83.2-83C220 462.8 182.6 500 182.6 545.8zM797.4 264.8c-22.2-137.2-141.2-241.8-284.8-241.8s-262.6 104.8-284.8 241.8c0 0-0.2 28.6 22.2 28.6 26.6 0 33.4-28.6 33.4-28.6 21.2-96.6 126.2-192.6 229.2-192.6s202 96 223.2 192.6c0 0 9.8 28.6 41.4 28.6C803.8 293.4 797.4 264.8 797.4 264.8zM674.8 545.8a41.6 41.5 0 1 0 166.4 0 41.6 41.5 0 1 0-166.4 0ZM512 886.2C234.6 886.2 9.8 661.4 9.8 384c0-277.4 224.8-502.2 502.2-502.2 277.4 0 502.2 224.8 502.2 502.2C1014.2 661.4 789.4 886.2 512 886.2zM512-75C258.4-75 53 130.4 53 384 53 637.6 258.4 843 512 843S971 637.6 971 384C971 130.4 765.6-75 512-75z"  horiz-adv-x="1024" />

    
    <glyph glyph-name="jiahao" unicode="&#58887;" d="M512.013 896C229.245 896 0.021 666.778 0.021 384.011c0-282.765 229.224-511.99 511.992-511.99 282.765 0 511.987 229.228 511.987 511.99C1024 666.778 794.775 896 512.013 896zM512.013-34.89c-230.976 0-418.904 187.918-418.904 418.898 0 230.984 187.928 418.901 418.904 418.901 230.974 0 418.899-187.917 418.899-418.901C930.912 153.028 742.984-34.89 512.013-34.89zM749.074 430.556 558.554 430.556 558.554 621.074c0 23.306-20.633 42.203-46.09 42.203l-0.907 0c-25.456 0-46.09-18.897-46.09-42.203l0-190.52-190.52 0c-23.316 0-42.203-20.637-42.203-46.079l0-0.932c0-25.445 18.887-46.079 42.203-46.079l190.52 0 0-190.521c0-23.307 20.635-42.204 46.09-42.204l0.907 0c25.457 0 46.09 18.897 46.09 42.204L558.554 337.467l190.521 0c23.314 0 42.204 20.634 42.204 46.079l0 0.932C791.278 409.919 772.391 430.556 749.074 430.556zM512.011 895.5C229.231 895.5 0 666.272 0 383.5c0-282.772 229.232-512 512.012-512 282.755 0 511.989 229.228 511.989 512C1024.001 666.272 794.767 895.5 512.011 895.5zM512.011-58.682c-243.824 0-442.192 198.362-442.192 442.182 0 243.819 198.368 442.182 442.192 442.182 243.824 0 442.191-198.363 442.191-442.182C954.202 139.681 755.835-58.682 512.011-58.682zM749.084 406.772l-213.8 0L535.284 620.569c0 23.307-15.479 37.5-34.568 37.5l-0.683 0c-19.091 0-34.568-14.193-34.568-37.5l0-213.795L274.938 406.774c-23.319 0-35.161-15.478-35.161-34.544l0-0.729c0-19.067 11.841-34.547 35.161-34.547l190.527 0 0-190.521c0-23.296 15.478-35.159 34.568-35.159l0.683 0c19.091 0 34.568 11.863 34.568 35.159L535.284 336.953l213.8 0c23.319 0 36.729 15.479 36.729 34.547l0 0.729C785.813 391.295 772.403 406.772 749.084 406.772zM511.807 896C229.027 896-0.205 666.772-0.205 384c0-282.772 229.232-512 512.012-512 282.757 0 511.988 229.228 511.988 512C1023.795 666.772 794.563 896 511.807 896zM511.807-58.182C267.983-58.182 69.615 140.183 69.615 384c0 243.818 198.368 442.182 442.19 442.182 243.823 0 442.191-198.364 442.191-442.182C953.998 140.183 755.63-58.182 511.807-58.182zM748.88 407.273l-203.8 0L545.08 621.068c0 23.307-15.479 37.5-34.569 37.5l-0.682 0c-19.091 0-34.569-14.193-34.569-37.5l0-213.794L274.733 407.274c-23.319 0-35.16-15.479-35.16-34.558l0-0.704c0-19.08 11.841-34.558 35.16-34.558L475.26 337.454l0-190.522c0-23.296 15.479-35.158 34.569-35.158l0.682 0c19.091 0 34.569 11.862 34.569 35.158L545.08 337.454l203.8 0c23.319 0 36.729 15.478 36.729 34.558l0 0.704C785.608 391.795 772.199 407.273 748.88 407.273zM512.011 896C229.232 896 0 666.772 0 384s229.232-512 512.011-512C794.768-128 1024 101.227 1024 384S794.768 896 512.011 896zM512.011-58.182C268.188-58.182 69.796 140.182 69.796 384c0 243.818 198.391 442.182 442.214 442.182S954.202 627.818 954.202 384C954.202 140.182 755.834-58.182 512.011-58.182zM749.062 407.273 535.284 407.273 535.284 621.068c0 23.318-15.478 37.5-34.569 37.5l-0.682 0c-19.114 0-34.591-14.182-34.591-37.5l0-213.795L274.938 407.273c-23.319 0-35.16-15.478-35.16-34.568l0-0.682c0-19.092 11.841-34.568 35.16-34.568l190.504 0 0-190.523c0-23.295 15.478-35.158 34.591-35.158l0.682 0c19.091 0 34.569 11.863 34.569 35.158L535.284 337.455l213.777 0c23.318 0 36.729 15.477 36.729 34.568l0 0.682C785.79 391.795 772.38 407.273 749.062 407.273z"  horiz-adv-x="1024" />

    
    <glyph glyph-name="gengduo" unicode="&#59062;" d="M1142.601344 896 411.22639 896c-80.819059 0-146.249969-65.556017-146.249969-146.249969l0-731.500061c0-80.819059 65.556017-146.249969 146.249969-146.249969l731.500061 0c80.819059 0 146.249969 65.556017 146.249969 146.249969L1288.97642 749.750031C1288.97642 830.56909 1223.420403 896 1142.601344 896zM676.578131 91.437508l-45.789126 43.537202 268.979841 249.087844-268.979841 249.087844L676.578131 676.562492l320.023458-292.499939L676.578131 91.437508z"  horiz-adv-x="1554" />

    
    <glyph glyph-name="zan1" unicode="&#58911;" d="M914.763685 530.347821 914.763685 530.347821c49.378014 0 109.219166-49.371913 109.219166-110.689779 0-44.407349-55.706833-444.596947-82.184946-488.547455-26.197792-43.393659-96.168419-59.110504-136.798116-59.110504L558.151934-127.999918c-131.834789 0-245.650309 73.179063-276.262164 73.179063L182.967775-54.820854c-20.225393 0-36.684428 16.27559-36.684428 36.590356l0 511.893231c0 20.136515 16.459036 36.685088 36.684428 36.685088l102.504576 0c14.621038 0 89.360994 32.449935 125.126464 93.037813 12.135087 20.9614 22.248402 61.501558 31.809402 100.760816 14.614937 59.941326 28.499968 116.573217 58.008432 146.633418 24.638219 25.284689 70.700533 32.361057 114.182246 17.56251 58.654983-19.769212 98.555268-72.539355 106.924163-141.028404 10.568754-85.872731-7.449855-180.381898-23.262998-216.966071L914.763685 530.347903 914.763685 530.347821zM36.513268 530.158109 36.513268 530.158109c20.225393 0 36.684428-16.358862 36.684428-36.495377l0-511.893231c0-20.314683-16.459118-36.685171-36.684428-36.685171-20.131156 0-36.495377 16.370487-36.495377 36.685171l0 511.893231C0.017891 513.799247 16.382112 530.158109 36.513268 530.158109L36.513268 530.158109z"  horiz-adv-x="1024" />

    
    <glyph glyph-name="jingdian" unicode="&#58903;" d="M864.620738 527.539553 601.968142 741.993125C582.194588 758.143143 557.44142 766.965543 531.904985 766.965543c-12.97018 0-26.945677 0-39.903266 0-25.357757 0-49.945437-8.700084-69.660431-24.643642L156.762082 527.539553c-0.001999 0-0.001999 0-0.004397 0L99.493025 527.539553l0-58.20622 821.454211 0 0 58.20622L864.620738 527.539553 864.620738 527.539553 864.620738 527.539553zM862.031698 57.137626c0.128912 0 0.128912 59.143582 0 59.143582 0 0-57.737738-0.133909-57.737738 0 0 0-0.748491 295.783068-0.877403 295.783068l-117.040213 0c-0.137906 0-0.20586-295.783068-0.068953-295.783068 0 0-116.713235-0.133909-116.713235 0 0 0 0.128912 295.783068 0 295.783068l-117.988568 0c-0.133309 0-0.133309-295.783068 0-295.783068l-116.713835 0c0.133309 0 0.240836 295.542231 0.240836 295.542231 0 0.133309-118.229204 0.240836-118.229204 0.240836-0.113923 0-0.133309-295.783068 0-295.783068 0 0-58.513611 0.13291-58.513611 0l0-59.143582c0-0.129912-58.89675 0.128912-58.89675 0l0-59.027661c0-0.128912 822.150937 0 822.150937 0 0.137906 0 0.240836 59.027661 0.240836 59.027661C921.884798 57.270336 862.031698 57.137626 862.031698 57.137626L862.031698 57.137626z"  horiz-adv-x="1024" />

    
    <glyph glyph-name="wode-copy" unicode="&#58898;" d="M631.361 335.933c85.986 43.184 145.006 132.164 145.006 234.939 0 145.118-117.641 262.759-262.758 262.759-145.118 0-262.759-117.641-262.759-262.759 0-102.795 59.039-191.784 145.050-234.959-135.491-39.647-242.502-145.953-283.147-281.014v-106.048c0-6.794 5.507-12.302 12.302-12.302h777.227c6.794 0 12.302 5.508 12.302 12.302l0 106.048c-40.652 135.085-147.698 241.406-283.221 281.035v0zM879.605-29.503h-730.95v84.401c0 0 79.622 217.682 303.796 260.738 0 0 16.060 3.757 16.060 16.744 0 10.214-8.561 15.654-12.215 17.507-97.463 25.569-169.366 114.252-169.366 219.731 0 125.458 101.704 227.163 227.161 227.163 125.458 0 227.163-101.704 227.163-227.163 0-104.463-70.524-192.444-166.553-218.967v-0.015c0 0-0.074-0.015-0.206-0.044-0.617-0.167-1.238-0.338-1.859-0.498-4.142-1.326-13.1-5.47-13.1-16.603 0-14.48 16.148-18.071 16.148-18.071s202.767-24.391 303.917-260.524v-84.401l0.006 0zM879.605-29.503z"  horiz-adv-x="1024" />

    
    <glyph glyph-name="dingdan-copy" unicode="&#58884;" d="M838.832 873.456h-668.275c-93.628 0-93.628-93.229-93.628-93.229v-792.451c0 0 0-93.229 95.057-93.229h553.057l204.515 163.152v722.53c0 0-1.43 93.229-90.724 93.229v0zM883.469 81.003l-184.352-139.845h-506.969c-69.133 0-69.133 69.922-69.133 69.922v745.836c0 0 0 69.922 69.133 69.922h622.189c69.133 0 69.133-69.922 69.133-69.922v-675.915zM238.238 360.693h530.012v-46.615h-530.012v46.615zM238.238 547.152h530.012v-46.615h-530.012v46.615zM238.238 733.611h253.484v-46.615h-253.484v46.615zM837.381 197.542h-207.397v-209.766h46.087v163.152h161.309v46.615z"  horiz-adv-x="1024" />

    
    <glyph glyph-name="jijin" unicode="&#58897;" d="M511.590687 836.649545c60.476067 0 119.110223-11.870091 174.367542-35.200959 53.313081-22.512241 101.202758-54.848006 142.441091-95.984011s73.47177-89.025682 95.984012-142.441091c23.330868-55.154992 35.200959-113.891476 35.200959-174.367543s-11.870091-119.110223-35.200959-174.367543c-22.512241-53.313081-54.848006-101.202758-95.984012-142.441091s-89.025682-73.47177-142.441091-95.984011c-55.154992-23.330868-113.891476-35.200959-174.367542-35.20096s-119.110223 11.870091-174.367543 35.20096c-53.313081 22.512241-101.202758 54.848006-142.441091 95.984011s-73.47177 89.025682-95.984012 142.441091c-23.330868 55.154992-35.200959 113.891476-35.200959 174.367543 0 60.476067 11.870091 119.110223 35.200959 174.367543 22.512241 53.313081 54.848006 101.202758 95.984012 142.441091 41.136005 41.136005 89.025682 73.47177 142.441091 95.984011 55.154992 23.330868 113.891476 35.200959 174.367543 35.200959m0 51.164185c-275.672629 0-499.055461-223.48516-499.055462-499.055461s223.48516-499.055461 499.055462-499.055461S1010.646148 113.187968 1010.646148 388.758269s-223.382832 499.055461-499.055461 499.055461zM615.556311 530.278405c3.172179 6.139702 4.707105 10.130509 4.707105 12.177076-1.023284 8.083941-5.730389 12.688718-14.121315 13.609673-8.390926 0-14.735285-3.581493-18.828421-10.64215L514.967523 440.638753l-72.346158 104.886579c-4.195463 7.060658-10.539822 10.64215-18.82842 10.642151-8.390926-1.023284-13.098031-5.62806-14.121315-13.609673 1.023284-4.093135 2.558209-8.083941 4.707105-12.177077 1.023284-1.023284 1.637254-2.046567 1.637254-3.069851l64.569201-95.779354h-37.759168c-11.563106 0-17.293495-4.604777-17.293495-13.609673 1.023284-7.162986 6.856001-11.153792 17.293495-12.177076h55.052663v-27.321675h-55.052663c-11.563106 0-17.293495-4.604777-17.293495-13.609673 1.023284-7.060658 6.856001-11.153792 17.293495-12.177076h55.052663v-60.783052c0-10.130509 5.730389-15.144599 17.293494-15.144599 11.460777 0 17.293495 5.116419 17.293495 15.144599V352.431698h55.052663c10.437494 1.023284 16.167882 5.116419 17.293495 12.177076 0 9.107225-5.730389 13.609673-17.293495 13.609673h-55.052663V405.540122h55.052663c10.437494 1.023284 16.167882 5.01409 17.293495 12.177076 0 9.107225-5.730389 13.609673-17.293495 13.609673H549.554512l64.569201 95.779355c-0.102328 1.125612 0.409313 2.148896 1.432598 3.172179z m115.631058-189.716798l-40.726691-4.195463c-4.297792-0.409313-8.083941-3.069851-9.823524-6.958329-1.739582-3.78615-1.22794-8.288598 1.22794-11.665435l3.990807-5.321075L507.497552 184.101529 459.505546 241.712401c-4.911762 5.832717-13.81433 6.958329-20.05636 2.455881-20.158689-14.4283-49.936245-35.712601-54.848007-38.680124-6.242031-3.172179-9.311882-10.335165-7.060657-16.986509 2.558209-7.367643 10.744479-11.256121 18.419106-8.902568 2.455881 0.818627 4.195463 1.432597 49.526931 33.87069l47.992006-57.610872c2.865194-3.479165 7.060658-5.218747 11.358449-5.218747 2.967523 0 6.037374 0.920955 8.697912 2.865194l189.614469 136.301389 2.967523-3.888478c2.251224-3.069851 5.935045-4.809433 9.823524-4.809433 0.409313 0 0.818627 0 1.22794 0.102328 4.297792 0.511642 8.083941 3.069851 9.925852 6.958329l16.577196 36.224243c1.637254 3.78615 1.22794 8.288598-1.330269 11.665435-2.558209 3.172179-6.856001 5.01409-11.153792 4.502448zM514.967523 641.304687C379.689417 641.304687 269.584091 534.98551 269.584091 404.312181c0-63.238933 25.582093-122.794044 71.834516-167.511541 2.865194-2.762866 6.549016-4.093135 10.335165-4.093135 3.78615 0 7.469971 1.432597 10.335166 4.093135 5.730389 5.525732 5.730389 14.4283 0 19.851703-40.82902 39.396423-63.341261 91.890876-63.341261 147.659838 0 115.119416 97.007295 208.852203 216.219846 208.852204s216.219846-93.630459 216.219846-208.852204c0-7.776956 6.549016-14.018987 14.632957-14.018986s14.530629 6.344359 14.530628 14.018986c-0.102328 130.673329-110.207655 236.992505-245.383431 236.992506z"  horiz-adv-x="1024" />

    
    <glyph glyph-name="close" unicode="&#58975;" d="M826.289 771.589l-314.289-314.278-314.289 314.278c-16.933 16.933-44.389 16.933-61.321 0-16.933-16.933-16.933-44.387 0-61.318l314.289-314.277-314.289-314.279c-16.933-16.933-16.933-44.387 0-61.318 16.933-16.933 44.389-16.933 61.321 0l314.289 314.277 314.289-314.277c16.933-16.933 44.388-16.933 61.323 0s16.933 44.387 0 61.318l-314.289 314.278 314.289 314.277c16.933 16.933 16.933 44.387 0 61.318-16.934 16.931-44.389 16.931-61.323 0.001z"  horiz-adv-x="1024" />

    
    <glyph glyph-name="add-cart" unicode="&#58880;" d="M512 832.21c-247.542 0-448.21-200.668-448.21-448.21s200.668-448.21 448.21-448.21 448.21 200.668 448.21 448.21-200.668 448.21-448.21 448.21zM767.826 320.041h-191.867v-191.867h-127.918v191.867h-191.867v127.918h191.867v191.867h127.918v-191.872h191.867v-127.913z"  horiz-adv-x="1024" />

    
    <glyph glyph-name="pinglun1" unicode="&#59043;" d="M576.512 141.473684h285.480421A53.733053 53.733053 0 0 1 916.210526 195.530105V680.259368A53.894737 53.894737 0 0 1 862.315789 734.315789H161.684211c-29.911579 0-53.894737-24.037053-53.894737-54.056421v-484.729263A53.894737 53.894737 0 0 1 161.684211 141.473684h161.68421l0.485053-168.474947L576.512 141.473684zM161.684211 788.210526h700.631578a107.789474 107.789474 0 0 0 107.789474-107.951158v-484.729263A107.627789 107.627789 0 0 0 861.992421 87.578947H592.842105l-323.368421-215.578947v215.578947H161.684211a107.789474 107.789474 0 0 0-107.789474 107.951158V680.259368C53.894737 739.866947 101.861053 788.210526 161.684211 788.210526z"  horiz-adv-x="1024" />

    
    <glyph glyph-name="jiahao3" unicode="&#58919;" d="M533.333333 405.333333V726.037333a21.333333 21.333333 0 0 1-42.666666 0V405.333333H169.962667a21.333333 21.333333 0 0 1 0-42.666666H490.666667v-320.704c0-11.776 10.218667-21.333333 22.016-21.333334 5.888 0 10.88 2.389333 14.741333 6.250667s5.909333 9.194667 5.909333 15.082667V362.666667h320.704c5.888 0 11.221333 1.706667 15.082667 5.568s6.250667 9.536 6.250667 15.424c0 11.776-9.536 21.674667-21.333334 21.674666H533.333333z"  horiz-adv-x="1024" />

    
    <glyph glyph-name="biji" unicode="&#59002;" d="M512 891.920319C230.501992 891.920319 2.039841 663.458167 2.039841 381.960159s228.462151-509.960159 509.960159-509.960159 509.960159 228.462151 509.960159 509.960159S795.537849 891.920319 512 891.920319z m95.87251-528.318725H387.569721c-12.239044 0-22.438247 10.199203-22.438247 22.438247 0 12.239044 10.199203 18.358566 22.438247 18.358565h220.302789c24.478088 0 24.478088-40.796813 0-40.796812z m0-104.031873H387.569721c-12.239044 0-22.438247 4.079681-22.438247 16.318725 0 12.239044 10.199203 24.478088 22.438247 24.478088h220.302789c24.478088 2.039841 24.478088-40.796813 0-40.796813zM365.131474 496.191235c0 12.239044 10.199203 10.199203 22.438247 10.199203h175.426295c26.517928 0 26.517928-40.796813 0-40.796813H387.569721c-12.239044 0-22.438247 18.358566-22.438247 30.59761z m399.808765-308.015936c0-36.717131-36.717131-71.394422-73.434263-71.394423H342.693227c-36.717131 0-67.314741 34.677291-67.314741 71.394423V583.904382c0 36.717131 30.59761 65.2749 67.314741 65.274901h259.059761v-44.876494H340.653386c-12.239044 0-24.478088-10.199203-24.478087-22.438247v-395.729084c0-12.239044 12.239044-30.59761 24.478087-30.597609h361.051793c12.239044 0 22.438247 18.358566 22.438247 30.597609V445.195219h40.796813v-257.01992zM693.545817 516.589641s-8.159363-14.278884-22.438247-22.438247l-40.796813-18.358565s-10.199203-6.119522-12.239044 10.199203l6.119522 44.876494s0 8.159363 10.199203 22.438247l95.87251 126.470119 53.035857-40.796812-89.752988-122.390439z m120.350597 155.027889l-10.199203-14.278885-53.035856 40.796813 14.278884 16.318725c12.239044 12.239044 30.59761 2.039841 30.59761 2.039841 12.239044-8.159363 20.398406-20.398406 20.398406-20.398406 6.119522-12.239044-2.039841-24.478088-2.039841-24.478088z"  horiz-adv-x="1026" />

    
    <glyph glyph-name="jingxuan" unicode="&#58913;" d="M810.666667-128c-115.541333 0-209.386667 91.904-212.992 206.570667a427.904 427.904 0 0 1 219.754666 219.754666C932.096 294.72 1024 200.874667 1024 85.333333c0-117.824-95.509333-213.333333-213.333333-213.333333z m39.189333 264.917333c-32.106667 32.106667-44.522667 76.522667-44.522667 76.522667s-10.069333-42.069333-41.109333-73.109333c-30.336-30.336-81.664-49.664-81.664-49.664s42.474667-10.474667 73.706667-41.706667c30.144-30.122667 49.066667-81.066667 49.066666-81.066667s19.328 51.328 49.664 81.664c31.04 31.04 73.109333 41.109333 73.109334 41.109334s-49.130667 17.109333-78.250667 46.250666zM426.666667 42.666667C191.018667 42.666667 0 233.685333 0 469.333333S191.018667 896 426.666667 896s426.666667-191.018667 426.666666-426.666667-191.018667-426.666667-426.666666-426.666666z m78.357333 529.834666C440.810667 636.714667 416 725.546667 416 725.546667s-20.138667-84.138667-82.197333-146.218667C273.109333 518.656 170.453333 480 170.453333 480s84.949333-20.949333 147.413334-83.413333c60.266667-60.266667 98.133333-162.133333 98.133333-162.133334s38.656 102.656 99.328 163.328c62.08 62.08 146.218667 82.218667 146.218667 82.218667s-98.24 34.24-156.522667 92.501333z"  horiz-adv-x="1024" />

    
    <glyph glyph-name="daijinquan" unicode="&#59073;" d="M837.36 15.312H186.624a94.768 94.768 0 0 0-94.624 94.688V270.192l19.568-0.688c0.704 0 1.408-0.064 2.064-0.096l0.784-0.096a83.456 83.456 0 0 1 83.296 83.376 83.424 83.424 0 0 1-83.344 83.312l-0.72-0.032a20.736 20.736 0 0 0-2.08-0.16l-19.568-0.64V595.312a94.768 94.768 0 0 0 94.624 94.688h650.736a94.784 94.784 0 0 0 94.64-94.688v-159.312h-18.928a83.456 83.456 0 0 1-83.36-83.312 83.488 83.488 0 0 1 83.36-83.376h18.928v-159.312a94.784 94.784 0 0 0-94.64-94.688zM129.856 232.432v-122.432a56.88 56.88 0 0 1 56.768-56.832h650.736a56.896 56.896 0 0 1 56.784 56.832V232.96c-57.888 9.104-102.304 59.312-102.304 119.728 0 60.368 44.4 110.56 102.304 119.68v122.944a56.864 56.864 0 0 1-56.784 56.816H186.624a56.832 56.832 0 0 1-56.768-56.816v-122.4c59.568-7.664 105.696-58.64 105.696-120.224 0.016-61.632-46.128-112.608-105.696-120.256zM431.328 536.128l80.656-157.792 80.672 157.792h67.824l-100.16-180.384h68.304v-31.872h-86.304l-0.544-0.48v-44.208h86.848v-31.872h-86.848v-78.096h-59.568v78.096H395.84v31.872h86.368v44.208l-0.544 0.48H395.84v31.872h67.824l-100.16 180.384h67.824z"  horiz-adv-x="1024" />

    
    <glyph glyph-name="jiahao4" unicode="&#58932;" d="M863.328 414.66l-317.344-0.1V733.182c0 17.665-14.336 32.001-32 32.001s-32-14.336-32-32v-318.401l-322.368 0.177h-0.097c-17.632 0-31.935-14.24-32-31.904-0.097-17.665 14.208-32.032 31.871-32.096l322.593-0.177v-319.167c0-17.696 14.336-32.001 31.999-32.001s32 14.303 32 32V350.56l317.088 0.1h0.128c17.632 0 31.935 14.24 32 31.905s-14.238 32.031-31.87 32.095z"  horiz-adv-x="1024" />

    
    <glyph glyph-name="biji1" unicode="&#58889;" d="M844.8-128H179.2a102.4 102.4 0 0 0-102.4 102.4V640a102.4 102.4 0 0 0 102.4 102.4h102.4V844.8h204.8V896h51.2v-51.2h204.8v-102.4h102.4a102.4 102.4 0 0 0 102.4-102.4v-665.6a102.4 102.4 0 0 0-102.4-102.4zM691.2 793.6H332.8v-51.2h358.4V793.6z m204.8-153.6a51.2 51.2 0 0 1-51.2 51.2H179.2a51.2 51.2 0 0 1-51.2-51.2v-665.6a51.2 51.2 0 0 1 51.2-51.2h665.6a51.2 51.2 0 0 1 51.2 51.2V640z m-179.2-307.2h-409.6a25.6 25.6 0 0 0 0 51.2h409.6a25.6 25.6 0 0 0 0-51.2z m0 153.6h-409.6a25.6 25.6 0 0 0 0 51.2h409.6a25.6 25.6 0 0 0 0-51.2z m-409.6-256h204.8a25.6 25.6 0 0 0 0-51.2h-204.8a25.6 25.6 0 0 0 0 51.2z"  horiz-adv-x="1024" />

    
    <glyph glyph-name="jingxuan1" unicode="&#58885;" d="M375.312217 891.366516c60.235294 0 106.570136-46.334842 106.570136-106.570136v-268.742081c0-60.235294-46.334842-106.570136-106.570136-106.570136H106.570136C46.334842 409.484163 0 455.819005 0 516.054299V784.79638C0 845.031674 46.334842 891.366516 106.570136 891.366516h268.742081z m0-78.769231H106.570136c-13.900452 0-27.800905-13.900452-27.800905-27.800905v-268.742081c0-13.900452 13.900452-27.800905 27.800905-27.800905h268.742081c13.900452 0 27.800905 13.900452 27.800905 27.800905V784.79638c0 13.900452-13.900452 27.800905-27.800905 27.800905zM912.79638 891.366516c60.235294 0 106.570136-46.334842 106.570136-106.570136v-268.742081c0-60.235294-46.334842-106.570136-106.570136-106.570136h-268.742081c-60.235294 0-106.570136 46.334842-106.570136 106.570136V784.79638c0 60.235294 46.334842 106.570136 106.570136 106.570136h268.742081z m0-78.769231h-268.742081c-13.900452 0-27.800905-13.900452-27.800905-27.800905v-268.742081c0-13.900452 13.900452-27.800905 27.800905-27.800905h268.742081c13.900452 0 27.800905 13.900452 27.800905 27.800905V784.79638c0 13.900452-13.900452 27.800905-27.800905 27.800905zM375.312217 353.882353c60.235294 0 106.570136-46.334842 106.570136-106.570136v-268.742081c0-60.235294-46.334842-106.570136-106.570136-106.570136H106.570136C46.334842-128 0-77.031674 0-21.429864V247.312217c0 60.235294 46.334842 106.570136 106.570136 106.570136h268.742081z m0-78.769231H106.570136c-13.900452 0-27.800905-13.900452-27.800905-27.800905v-268.742081c0-13.900452 13.900452-27.800905 27.800905-27.800905h268.742081c13.900452 0 27.800905 13.900452 27.800905 27.800905V247.312217c0 13.900452-13.900452 27.800905-27.800905 27.800905z m537.484163 78.769231c60.235294 0 106.570136-46.334842 106.570136-106.570136v-268.742081c0-60.235294-46.334842-106.570136-106.570136-106.570136h-268.742081c-60.235294 0-106.570136 46.334842-106.570136 106.570136V247.312217c0 60.235294 46.334842 106.570136 106.570136 106.570136h268.742081z m0-78.769231h-268.742081c-13.900452 0-27.800905-13.900452-27.800905-27.800905v-268.742081c0-13.900452 13.900452-27.800905 27.800905-27.800905h268.742081c13.900452 0 27.800905 13.900452 27.800905 27.800905V247.312217c0 13.900452-13.900452 27.800905-27.800905 27.800905z"  horiz-adv-x="1024" />

    
    <glyph glyph-name="fanhui" unicode="&#58910;" d="M278.4 384.327L859.772 841.9 803.395 886.297 165.676 384.202l637.719-501.97 56.377 44.428z"  horiz-adv-x="1024" />

    
    <glyph glyph-name="goumai" unicode="&#58923;" d="M975.152 660.941c-16.726 24.626-44.336 39.328-73.856 39.328l-699.771 0.067-4.977 27.662-6.844 48.766c-2.203 15.681-15.735 27.505-31.476 27.505H65.441c-17.529 0-31.79-14.346-31.79-31.98 0-17.632 14.26-31.978 31.79-31.978h65.169l3.073-21.884c0.057-0.407 0.123-0.81 0.195-1.211l9.082-50.48a32.033 32.033 0 0 1 1.445-8.025l13.45-74.763c0.085-0.47 0.18-0.944 0.303-1.497l68.371-298.918c0.146-0.639 0.31-1.267 0.499-1.916 14.931-50.595 42.657-84.266 78.245-96.449-47.492-12.951-82.541-56.805-82.541-108.774 0-62.123 50.079-112.666 111.635-112.666 61.554 0 111.633 50.541 111.633 112.666 0 46.495-28.053 86.498-67.971 103.685H694.35c-39.919-17.186-67.972-57.19-67.972-103.685 0-62.123 50.078-112.666 111.633-112.666 61.556 0 111.635 50.541 111.635 112.666 0 51.938-35.007 95.773-82.46 108.752 33.418 11.29 61.623 41.587 85.611 91.781 0.157 0.336 0.313 0.673 0.431 0.953l130.27 298.882c0.205 0.47 0.397 0.944 0.576 1.413 10.805 28.348 7.555 58.515-8.918 82.764z m-285.2-584.546c0 26.855 21.556 48.705 48.053 48.705 26.498 0 48.055-21.847 48.055-48.705 0-13.01-5.023-25.251-14.145-34.47-9.086-9.18-21.131-14.236-33.91-14.236-26.497 0.001-48.053 21.851-48.053 48.706zM334.365 125.1c26.498 0 48.055-21.847 48.055-48.705s-21.557-48.705-48.055-48.705-48.055 21.85-48.055 48.705 21.557 48.705 48.055 48.705z m590.562 476.57L795.23 304.09c-19.395-40.41-38.823-60.052-59.396-60.052H336.358c-11.807 0-33.739 7.132-48.106 54.873L220.285 596.07l-7.25 40.295 43.614-0.054h644.646c8.379 0 16.566-4.389 21.365-11.454 4.545-6.691 5.327-14.705 2.266-23.187z m-172.699-17.399c-5.999 0-11.719-1.902-16.546-5.498L483.159 390.565l-75.837 89.292a27.718 27.718 0 0 1-21.155 9.807 27.734 27.734 0 0 1-18.155-6.787c-11.563-10.03-12.9-27.69-2.983-39.369l92.689-109.138a27.718 27.718 0 0 1 21.158-9.807 27.482 27.482 0 0 1 16.548 5.498l273.372 203.746c12.272 9.146 14.902 26.661 5.865 39.043-5.221 7.151-13.609 11.421-22.434 11.421z"  horiz-adv-x="1024" />

    
    <glyph glyph-name="jingdian1" unicode="&#59535;" d="M134.762667-25.216a681.258667 681.258667 0 0 1 37.44 36.970667c38.4 40.768 76.778667 89.685333 112.554666 146.816C386.773333 321.493333 448 517.546667 448 746.666667a21.333333 21.333333 0 0 1-42.666667 0c0-220.714667-58.794667-409.045333-156.757333-565.461334-34.218667-54.656-70.869333-101.376-107.434667-140.202666A638.848 638.848 0 0 0 106.069333 6.4c-6.186667-5.632-10.517333-9.301333-12.672-11.008a21.333333 21.333333 0 1 1 26.538667-33.408c2.858667 2.261333 7.893333 6.549333 14.826667 12.821333z m783.146666 31.573333a638.848 638.848 0 0 0-35.050666 34.645334c-36.565333 38.826667-73.216 85.546667-107.434667 140.202666C677.461333 337.621333 618.666667 525.952 618.666667 746.666667a21.333333 21.333333 0 0 1-42.666667 0c0-229.098667 61.226667-425.173333 163.242667-588.096 35.776-57.130667 74.133333-106.026667 112.554666-146.816 13.525333-14.357333 26.112-26.666667 37.44-36.970667 6.933333-6.272 11.968-10.56 14.826667-12.821333a21.333333 21.333333 0 1 1 26.538667 33.408c-2.133333 1.706667-6.464 5.376-12.672 11.008zM661.333333 597.333333a21.333333 21.333333 0 0 1 0 42.666667H362.666667a21.333333 21.333333 0 0 1 0-42.666667h298.666666z m-170.666666 170.666667a21.333333 21.333333 0 0 1 42.666666 0V832a21.333333 21.333333 0 0 1-42.666666 0v-64zM597.333333 725.333333a21.333333 21.333333 0 0 1 0 42.666667h-170.666666a21.333333 21.333333 0 0 1 0-42.666667h170.666666z m192-490.666666a21.333333 21.333333 0 0 1 0 42.666666H234.666667a21.333333 21.333333 0 0 1 0-42.666666h554.666666z m-277.44-170.666667c55.68-0.298667 103.616-32.213333 129.813334-93.696a21.333333 21.333333 0 1 1 39.253333 16.725333c-32.853333 77.12-96.106667 119.253333-168.853333 119.637334-73.194667 0.405333-136.469333-41.664-169.130667-119.786667a21.333333 21.333333 0 1 1 39.381333-16.448c25.984 62.186667 73.642667 93.866667 129.536 93.568z"  horiz-adv-x="1024" />

    
    <glyph glyph-name="pingfenxingji" unicode="&#59164;" d="M1193.64345 507.15629a36.904053 36.904053 0 0 1-32.125724 24.574259L851.651675 579.428504 716.919885 874.831579A36.946716 36.946716 0 0 1 682.746305 895.992747a36.946716 36.946716 0 0 1-32.851006-21.161168l-136.779645-294.677793L200.51913 533.778404a36.904053 36.904053 0 0 1-19.838595-61.435648l224.368107-231.236954-53.329555-325.395618a36.776062 36.776062 0 0 1 15.060266-35.837462c11.519184-8.106092 26.579451-9.002029 38.951908-2.3465l273.559289 152.138557 273.601953-152.821175a35.624143 35.624143 0 0 1 38.994572 2.047855 36.776062 36.776062 0 0 1 15.060266 35.453488l-52.689601 325.395618 225.69068 229.914381a36.776062 36.776062 0 0 1 13.69503 37.501344M3924.116708 507.15629a36.904053 36.904053 0 0 1-32.125724 24.574259L3582.124933 579.428504 3447.393143 874.831579A36.946716 36.946716 0 0 1 3413.219564 895.992747a36.946716 36.946716 0 0 1-32.851007-21.161168l-136.779645-294.677793L2930.992388 533.778404a36.904053 36.904053 0 0 1-19.838595-61.435648l224.368108-231.236954-53.329556-325.395618a36.776062 36.776062 0 0 1 15.060266-35.837462c11.519184-8.106092 26.579451-9.002029 38.951908-2.3465l273.559289 152.138557 273.601954-152.821175a35.624143 35.624143 0 0 1 38.994571 2.047855 36.776062 36.776062 0 0 1 15.060266 35.453488l-52.689601 325.395618 225.69068 229.914381a36.776062 36.776062 0 0 1 13.69503 37.501344M2558.880079 507.15629a36.904053 36.904053 0 0 1-32.125724 24.574259L2216.888304 579.428504 2082.156514 874.831579A36.946716 36.946716 0 0 1 2047.982935 895.992747a36.946716 36.946716 0 0 1-32.851007-21.161168l-136.779645-294.677793L1565.755759 533.778404a36.904053 36.904053 0 0 1-19.838595-61.435648l224.368107-231.236954-53.329555-325.395618a36.776062 36.776062 0 0 1 15.060266-35.837462c11.519184-8.106092 26.579451-9.002029 38.951908-2.3465l273.559289 152.138557 273.601954-152.821175a35.624143 35.624143 0 0 1 38.994571 2.047855 36.776062 36.776062 0 0 1 15.060266 35.453488l-52.689601 325.395618 225.69068 229.914381a36.776062 36.776062 0 0 1 13.69503 37.501344M5257.227613 531.730549l-309.866051 47.740618-134.73179 295.360412a36.946716 36.946716 0 0 1-34.173579 21.161168 36.946716 36.946716 0 0 1-32.851007-21.161168l-136.779644-294.677793L4296.229017 533.778404a36.904053 36.904053 0 0 1-19.838595-61.435648l224.368108-231.236954-53.329556-325.395618a36.776062 36.776062 0 0 1 15.060266-35.837462c11.519184-8.106092 26.579451-9.002029 38.951908-2.3465l273.559289 152.138557 273.601954-152.821175a35.624143 35.624143 0 0 1 38.994571 2.047855 36.776062 36.776062 0 0 1 15.060266 35.453488l-52.689601 325.395618 225.690681 229.914381a36.776062 36.776062 0 0 1 13.695029 37.501344 36.904053 36.904053 0 0 1-32.125724 24.574259zM6622.464242 531.730549l-309.866051 47.740618-134.73179 295.360412a36.946716 36.946716 0 0 1-34.173579 21.161168 36.946716 36.946716 0 0 1-32.851007-21.161168l-136.779644-294.677793L5661.465646 533.778404a36.904053 36.904053 0 0 1-19.838595-61.435648l224.368108-231.236954-53.329556-325.395618a36.776062 36.776062 0 0 1 15.060266-35.837462c11.519184-8.106092 26.579451-9.002029 38.951908-2.3465l273.55929 152.138557 273.601953-152.821175a35.624143 35.624143 0 0 1 38.994571 2.047855 36.776062 36.776062 0 0 1 15.060267 35.453488l-52.689602 325.395618 225.690681 229.914381a36.776062 36.776062 0 0 1 13.69503 37.501344 36.904053 36.904053 0 0 1-32.125725 24.574259z"  horiz-adv-x="6826" />

    
    <glyph glyph-name="pingfenxingji-hui" unicode="&#59165;" d="M1193.64345 507.15629a36.904053 36.904053 0 0 1-32.125724 24.574259L851.651675 579.428504 716.919885 874.831579A36.946716 36.946716 0 0 1 682.746305 895.992747a36.946716 36.946716 0 0 1-32.851006-21.161168l-136.779645-294.677793L200.51913 533.778404a36.904053 36.904053 0 0 1-19.838595-61.435648l224.368107-231.236954-53.329555-325.395618a36.776062 36.776062 0 0 1 15.060266-35.837462c11.519184-8.106092 26.579451-9.002029 38.951908-2.3465l273.559289 152.138557 273.601953-152.821175a35.624143 35.624143 0 0 1 38.994572 2.047855 36.776062 36.776062 0 0 1 15.060266 35.453488l-52.689601 325.395618 225.69068 229.914381a36.776062 36.776062 0 0 1 13.69503 37.501344M3924.116708 507.15629a36.904053 36.904053 0 0 1-32.125724 24.574259L3582.124933 579.428504 3447.393143 874.831579A36.946716 36.946716 0 0 1 3413.219564 895.992747a36.946716 36.946716 0 0 1-32.851007-21.161168l-136.779645-294.677793L2930.992388 533.778404a36.904053 36.904053 0 0 1-19.838595-61.435648l224.368108-231.236954-53.329556-325.395618a36.776062 36.776062 0 0 1 15.060266-35.837462c11.519184-8.106092 26.579451-9.002029 38.951908-2.3465l273.559289 152.138557 273.601954-152.821175a35.624143 35.624143 0 0 1 38.994571 2.047855 36.776062 36.776062 0 0 1 15.060266 35.453488l-52.689601 325.395618 225.69068 229.914381a36.776062 36.776062 0 0 1 13.69503 37.501344M2558.880079 507.15629a36.904053 36.904053 0 0 1-32.125724 24.574259L2216.888304 579.428504 2082.156514 874.831579A36.946716 36.946716 0 0 1 2047.982935 895.992747a36.946716 36.946716 0 0 1-32.851007-21.161168l-136.779645-294.677793L1565.755759 533.778404a36.904053 36.904053 0 0 1-19.838595-61.435648l224.368107-231.236954-53.329555-325.395618a36.776062 36.776062 0 0 1 15.060266-35.837462c11.519184-8.106092 26.579451-9.002029 38.951908-2.3465l273.559289 152.138557 273.601954-152.821175a35.624143 35.624143 0 0 1 38.994571 2.047855 36.776062 36.776062 0 0 1 15.060266 35.453488l-52.689601 325.395618 225.69068 229.914381a36.776062 36.776062 0 0 1 13.69503 37.501344M5257.227613 531.730549l-309.866051 47.740618-134.73179 295.360412a36.946716 36.946716 0 0 1-34.173579 21.161168 36.946716 36.946716 0 0 1-32.851007-21.161168l-136.779644-294.677793L4296.229017 533.778404a36.904053 36.904053 0 0 1-19.838595-61.435648l224.368108-231.236954-53.329556-325.395618a36.776062 36.776062 0 0 1 15.060266-35.837462c11.519184-8.106092 26.579451-9.002029 38.951908-2.3465l273.559289 152.138557 273.601954-152.821175a35.624143 35.624143 0 0 1 38.994571 2.047855 36.776062 36.776062 0 0 1 15.060266 35.453488l-52.689601 325.395618 225.690681 229.914381a36.776062 36.776062 0 0 1 13.695029 37.501344 36.904053 36.904053 0 0 1-32.125724 24.574259zM6622.464242 531.730549l-309.866051 47.740618-134.73179 295.360412a36.946716 36.946716 0 0 1-34.173579 21.161168 36.946716 36.946716 0 0 1-32.851007-21.161168l-136.779644-294.677793L5661.465646 533.778404a36.904053 36.904053 0 0 1-19.838595-61.435648l224.368108-231.236954-53.329556-325.395618a36.776062 36.776062 0 0 1 15.060266-35.837462c11.519184-8.106092 26.579451-9.002029 38.951908-2.3465l273.55929 152.138557 273.601953-152.821175a35.624143 35.624143 0 0 1 38.994571 2.047855 36.776062 36.776062 0 0 1 15.060267 35.453488l-52.689602 325.395618 225.690681 229.914381a36.776062 36.776062 0 0 1 13.69503 37.501344 36.904053 36.904053 0 0 1-32.125725 24.574259z"  horiz-adv-x="6826" />

    
    <glyph glyph-name="zan" unicode="&#58896;" d="M130.984-96.988H59.588c-25.889 0-46.953 21.054-46.953 46.943V441.834c0 25.889 21.064 46.943 46.953 46.943h71.396c17.169 0 31.079-13.911 31.079-31.079 0-17.169-13.911-31.079-31.079-31.079h-56.19v-461.447h56.19c17.169 0 31.079-13.911 31.079-31.079s-13.91-31.081-31.079-31.081zM840.652-106.448c-7.851 0-14.336 0.819-18.372 1.497H226.195c-17.169 0-31.079 13.911-31.079 31.079V481.503c0 16.997 13.648 30.837 30.644 31.079 72.104 1.012 126.038 22.237 160.294 63.08 61.643 73.49 43.716 189.229 43.534 190.382a31.481 31.481 0 0 0 0.445 12.302c20.811 86.733 82.282 96.102 107.746 96.102 21.964 0 38.789-6.171 40.63-6.869 0.86-0.334 1.71-0.698 2.539-1.103 132.948-64.668 88.979-245.712 59.66-330.088h279.806c79.591-4.148 104.64-73.935 102.455-119.836a31.81 31.81 0 0 0-0.627-4.887L931.28-23.326c-7.496-61.249-51.606-83.122-90.628-83.122z m-8.346 62.837c0.03 0 3.541-0.678 8.347-0.678 18.544 0 26.689 8.235 29.036 29.39 0.111 0.981 0.263 1.963 0.465 2.934L960.812 421.6c0.071 14.123-3.541 50.646-42.026 52.669l-323.664-0.04a31.08 31.08 0 0 0-26.112 14.245 31.099 31.099 0 0 0-2.195 29.673c1.062 2.337 101.949 233.794-11.412 291.613-2.378 0.708-9.277 2.529-17.624 2.529-14.66 0-35.035-4.603-45.891-43.038 3.693-30.027 12.859-148.437-57.9-233.177-41.055-49.148-100.401-77.375-176.714-84.113v-494.753h567.929c2.388 0 4.776-0.273 7.103-0.819 0 0-0.01 0 0 0z"  horiz-adv-x="1024" />

    
    <glyph glyph-name="fanhui1" unicode="&#58901;" d="M722.426774 895.1493L288.083551 447.43793l-61.858058-64.045573 61.858058-63.924045h0.243057l434.100166-447.468312 61.858059 63.680987-434.221695 447.71137L784.284833 831.103727z"  horiz-adv-x="1024" />

    
    <glyph glyph-name="gengduo1" unicode="&#58891;" d="M512-128C229.692952-128 0 101.668571 0 384 0 666.307048 229.692952 896 512 896s512-229.692952 512-512c0-282.331429-229.668571-512-512-512z m0 973.019429c-254.22019 0-461.04381-206.823619-461.04381-461.04381s206.823619-461.04381 461.04381-461.043809 461.04381 206.799238 461.04381 461.043809c0 254.22019-206.799238 461.04381-461.04381 461.04381zM396.190476 126.854095a25.453714 25.453714 0 0 0-18.017524 43.495619L591.798857 384l-213.625905 213.650286a25.526857 25.526857 0 0 0 36.035048 36.059428l231.69219-231.69219c9.898667-9.947429 9.898667-26.087619-0.048761-36.059429l-231.66781-231.667809a25.453714 25.453714 0 0 0-17.993143-7.436191z"  horiz-adv-x="1024" />

    
    <glyph glyph-name="zan2" unicode="&#58883;" d="M212.337142 494.209076H43.386195c-40.32364 0-40.32364-40.32364-40.32364-40.32364l40.32364-538.499241c0-40.32364 40.32364-40.32364 40.32364-40.32364h152.61732c32.156827 0 32.156827 23.990014 32.156827 23.990014V438.062236c-16.333626 56.14684-56.14684 56.14684-56.14684 56.14684z m739.607015 0h-281.244628c104.637293 418.038748-72.480467 401.705121-72.480466 401.705121-80.136854 0-64.313653-64.313653-64.313654-72.480466 0-201.107774-208.764161-321.568267-208.764161-321.568268V-36.123352c0-56.14684 72.480467-80.136854 104.637293-80.136854H847.306863c40.32364 0 72.480467 104.637293 72.480467 104.637293 104.637293 369.548295 104.637293 442.028761 104.637293 442.028761-0.510426 71.970041-72.480467 63.803228-72.480466 63.803228z"  horiz-adv-x="1027" />

    
    <glyph glyph-name="shoucang1" unicode="&#58881;" d="M752-43.2c-9.6 0-20.8 3.2-30.4 8l-208 104-209.6-104c-20.8-11.2-48-9.6-67.2 4.8s-30.4 40-25.6 64l43.2 224-164.8 153.6c-17.6 17.6-24 44.8-17.6 67.2 8 24 27.2 41.6 52.8 44.8l228.8 41.6 102.4 208c11.2 22.4 33.6 36.8 57.6 36.8s48-14.4 57.6-36.8l102.4-208 228.8-40c24-3.2 44.8-20.8 51.2-44.8 8-24 1.6-49.6-16-67.2l-164.8-155.2 41.6-224c4.8-25.6-6.4-49.6-25.6-64-9.6-8-22.4-12.8-36.8-12.8z"  horiz-adv-x="1024" />

    
    <glyph glyph-name="shoucang11" unicode="&#58882;" d="M752-43.200000000000045c-9.6 0-20.8 3.2-30.4 8l-208 104L304-35.200000000000045c-20.8-11.2-48-9.6-67.2 4.8-19.2 14.4-30.4 40-25.6 64l43.2 224-164.8 153.6c-17.6 17.6-24 44.8-17.6 67.2 8 24 27.2 41.6 52.8 44.8l228.8 41.6 102.4 208c11.2 22.4 33.6 36.8 57.6 36.8s48-14.4 57.6-36.8l102.4-208 228.8-40c24-3.2 44.8-20.8 51.2-44.8 8-24 1.6-49.6-16-67.2l-164.8-155.2 41.6-224c4.8-25.6-6.4-49.6-25.6-64-9.6-8-22.4-12.8-36.8-12.8z"  horiz-adv-x="1024" />

    


  </font>
</defs>
</svg>
